<svg xmlns="http://www.w3.org/2000/svg" viewBox="0 0 389.65 240.67"><defs><style>.cls-1{fill:#e9eeed;}.cls-2{fill:#ebb243;}.cls-3{fill:#fff;}.cls-4{fill:#4c8163;}.cls-5{fill:#f3f3f4;}.cls-6{fill:#e7e8e9;}.cls-7{fill:#fafafa;}.cls-8{fill:#f5f5f5;}.cls-9{fill:#ececec;}.cls-10{fill:#dadcde;}.cls-11{fill:#1f1f1d;}.cls-12{fill:#8aad9a;}.cls-13{fill:#749d86;}</style></defs><g id="Capa_2" data-name="Capa 2"><path class="cls-1" d="M46.86,230.79s-23.26-31.28-15.23-73c8.58-44.58,64.18-50.67,91.64-93.67S196.7,4.59,244.48,12.42c58.72,9.62,65.6,89,86.76,109.84s57.16,74.32,15.29,108.53Z"></path><path class="cls-2" d="M314.49,93.42v21.83a2.89,2.89,0,0,1-2.89,2.89H268.23a2.88,2.88,0,0,0-1.76.6l-9.15,7a2.89,2.89,0,0,1-4.65-2.29v-30a2.89,2.89,0,0,1,2.89-2.89h56A2.89,2.89,0,0,1,314.49,93.42Z"></path><path class="cls-3" d="M269.56,104.23a5.68,5.68,0,1,1-5.68-5.68A5.68,5.68,0,0,1,269.56,104.23Z"></path><path class="cls-3" d="M273.67,102.42l.93-2.76h1.52l-.75,2.76Zm2.12,0,.94-2.76h1.51l-.74,2.76Z"></path><path class="cls-3" d="M302,109.36l.94-2.76h1.51l-.74,2.76Zm2.13,0,.93-2.76h1.51l-.74,2.76Z"></path><rect class="cls-4" x="279.29" y="100.6" width="29.31" height="1.31"></rect><rect class="cls-4" x="273.67" y="103.78" width="33.3" height="1.31"></rect><rect class="cls-4" x="273.67" y="106.96" width="27.45" height="1.31"></rect><polygon class="cls-5" points="345.78 71.04 345.78 228.74 313.45 228.74 313.45 91.71 345.78 71.04"></polygon><polygon class="cls-6" points="318.34 119.54 318.6 228.55 326.51 228.55 372.49 228.55 380.4 228.55 380.75 119.54 318.34 119.54"></polygon><polygon class="cls-6" points="330.41 105.67 330.44 129.97 335.34 129.97 363.79 129.97 368.69 129.97 368.74 105.67 330.41 105.67"></polygon><polygon class="cls-7" points="330.37 129.97 322.28 129.97 322.27 122.69 330.36 122.69 330.37 129.97"></polygon><rect class="cls-7" x="337.79" y="122.69" width="8.08" height="7.28"></rect><rect class="cls-7" x="353.29" y="122.69" width="8.08" height="7.28"></rect><polygon class="cls-5" points="376.88 129.97 368.8 129.97 368.81 122.69 376.9 122.69 376.88 129.97"></polygon><polygon class="cls-5" points="330.26 143.24 322.37 143.24 322.35 136.14 330.25 136.14 330.26 143.24"></polygon><rect class="cls-5" x="337.84" y="136.14" width="7.9" height="7.1"></rect><rect class="cls-7" x="353.33" y="136.14" width="7.9" height="7.1"></rect><polygon class="cls-7" points="376.7 143.24 368.81 143.24 368.82 136.14 376.72 136.14 376.7 143.24"></polygon><polygon class="cls-5" points="330.19 156.19 322.48 156.19 322.47 149.26 330.18 149.26 330.19 156.19"></polygon><rect class="cls-7" x="337.94" y="149.26" width="7.71" height="6.93"></rect><rect class="cls-7" x="353.41" y="149.26" width="7.71" height="6.93"></rect><rect class="cls-7" x="337.59" y="112.11" width="8.24" height="7.43"></rect><rect class="cls-5" x="353.1" y="112.11" width="8.24" height="7.43"></rect><polygon class="cls-5" points="376.58 156.19 368.87 156.19 368.89 149.26 376.6 149.26 376.58 156.19"></polygon><polygon class="cls-7" points="330.17 168.82 322.63 168.82 322.62 162.06 330.16 162.06 330.17 168.82"></polygon><rect class="cls-5" x="338.08" y="162.06" width="7.54" height="6.77"></rect><rect class="cls-5" x="353.54" y="162.06" width="7.54" height="6.77"></rect><polygon class="cls-7" points="376.52 168.82 368.98 168.82 369 162.06 376.54 162.06 376.52 168.82"></polygon><polygon class="cls-5" points="330.51 183.03 322.11 183.03 322.09 175.5 330.5 175.5 330.51 183.03"></polygon><polygon class="cls-7" points="345.93 183.03 337.53 183.03 337.52 175.5 345.93 175.5 345.93 183.03"></polygon><polygon class="cls-7" points="361.34 183.03 352.95 183.03 352.95 175.5 361.36 175.5 361.34 183.03"></polygon><polygon class="cls-5" points="376.76 183.03 368.36 183.03 368.38 175.5 376.79 175.5 376.76 183.03"></polygon><polygon class="cls-5" points="330.55 195.03 322.35 195.03 322.33 187.68 330.55 187.68 330.55 195.03"></polygon><rect class="cls-7" x="337.76" y="187.68" width="8.21" height="7.35"></rect><rect class="cls-5" x="353.18" y="187.68" width="8.21" height="7.35"></rect><polygon class="cls-7" points="376.79 195.03 368.59 195.03 368.6 187.68 376.81 187.68 376.79 195.03"></polygon><polygon class="cls-7" points="330.38 208.53 322.38 208.53 322.36 201.37 330.37 201.37 330.38 208.53"></polygon><rect class="cls-7" x="337.76" y="201.37" width="8" height="7.16"></rect><rect class="cls-5" x="353.15" y="201.37" width="8" height="7.16"></rect><polygon class="cls-5" points="376.54 208.53 368.53 208.53 368.55 201.37 376.56 201.37 376.54 208.53"></polygon><polygon class="cls-5" points="330.38 220.81 322.57 220.81 322.56 213.83 330.37 213.83 330.38 220.81"></polygon><polygon class="cls-7" points="376.51 220.81 368.69 220.81 368.71 213.83 376.53 213.83 376.51 220.81"></polygon><polygon class="cls-8" points="361.19 213.83 337.87 213.83 337.91 215.58 338.56 215.58 338.57 228.55 340.9 228.55 340.89 215.58 358.2 215.58 358.19 228.55 360.52 228.55 360.54 215.58 361.24 215.58 361.19 213.83"></polygon><polygon class="cls-6" points="349.65 228.55 341.01 228.55 341 215.58 349.66 215.58 349.65 228.55"></polygon><polygon class="cls-9" points="358.08 228.55 349.44 228.55 349.44 215.58 358.1 215.58 358.08 228.55"></polygon><polygon class="cls-8" points="196.74 119.54 198.53 228.55 206.44 228.55 252.41 228.55 260.33 228.55 259.14 119.54 196.74 119.54"></polygon><polygon class="cls-6" points="200.64 122.69 200.85 135.96 200.91 139.6 200.97 143.24 209.06 143.24 209.01 139.6 208.95 135.96 208.75 122.69 200.64 122.69"></polygon><polygon class="cls-6" points="216.15 122.69 216.34 135.96 216.4 139.6 216.45 143.24 224.55 143.24 224.5 139.6 224.45 135.96 224.26 122.69 216.15 122.69"></polygon><polygon class="cls-6" points="231.66 122.69 231.84 135.96 231.89 139.6 231.94 143.24 240.03 143.24 239.99 139.6 239.94 135.96 239.77 122.69 231.66 122.69"></polygon><polygon class="cls-6" points="247.17 122.69 247.33 135.96 247.4 141.59 247.42 143.24 255.51 143.24 255.5 141.59 255.43 135.96 255.29 122.69 247.17 122.69"></polygon><polygon class="cls-6" points="201.13 149.26 201.34 162.5 201.4 166.15 201.46 169.78 209.56 169.78 209.51 166.15 209.45 162.5 209.25 149.26 201.13 149.26"></polygon><polygon class="cls-6" points="216.6 149.26 216.79 162.5 216.87 167.64 216.9 169.78 225.01 169.78 224.98 167.64 224.91 162.5 224.72 149.26 216.6 149.26"></polygon><polygon class="cls-6" points="232.06 149.26 232.24 162.5 232.29 166.15 232.34 169.78 240.45 169.78 240.4 166.15 240.35 162.5 240.19 149.26 232.06 149.26"></polygon><polygon class="cls-6" points="247.53 149.26 247.69 162.5 247.74 166.15 247.78 169.78 255.89 169.78 255.85 166.15 255.81 162.5 255.66 149.26 247.53 149.26"></polygon><polygon class="cls-6" points="201.59 175.5 201.8 188.69 201.86 192.32 201.92 195.94 210.01 195.94 209.96 192.32 209.9 188.69 209.7 175.5 201.59 175.5"></polygon><polygon class="cls-6" points="217.02 175.5 217.21 188.69 217.26 192.32 217.32 195.94 225.41 195.94 225.36 192.32 225.31 188.69 225.13 175.5 217.02 175.5"></polygon><polygon class="cls-6" points="232.44 175.5 232.62 188.69 232.67 192.32 232.72 195.94 240.81 195.94 240.77 192.32 240.72 188.69 240.56 175.5 232.44 175.5"></polygon><polygon class="cls-6" points="247.87 175.5 248.03 188.69 248.09 193.7 248.12 195.94 256.21 195.94 256.19 193.7 256.13 188.69 255.99 175.5 247.87 175.5"></polygon><polygon class="cls-6" points="252.38 201.37 248.37 201.37 240.87 201.37 232.86 201.37 225.36 201.37 217.35 201.37 201.84 201.37 201.96 208.53 217.46 208.53 225.46 208.53 232.96 208.53 240.96 208.53 248.46 208.53 252.46 208.53 256.46 208.53 256.38 201.37 252.38 201.37"></polygon><polygon class="cls-7" points="240.87 213.83 217.54 213.83 217.51 215.58 218.22 215.58 218.41 228.55 220.74 228.55 220.55 215.58 237.86 215.58 238.03 228.55 240.36 228.55 240.2 215.58 240.84 215.58 240.87 213.83"></polygon><polygon class="cls-6" points="229.49 228.55 220.85 228.55 220.66 215.58 229.31 215.58 229.49 228.55"></polygon><polygon class="cls-6" points="237.92 228.55 229.28 228.55 229.1 215.58 237.75 215.58 237.92 228.55"></polygon><polygon class="cls-6" points="318 125.82 318.71 228.55 311.25 228.55 267.93 228.55 260.47 228.55 259.19 125.82 318 125.82"></polygon><polygon class="cls-5" points="297.23 203.17 300.41 203.17 314.66 203.17 314.68 206.46 314.71 209.75 314.8 221.68 307.42 221.68 307.32 209.42 300.12 209.42 297.29 209.42 293.13 209.42 293.08 203.17 297.23 203.17"></polygon><polygon class="cls-5" points="269.12 203.17 271.95 203.17 285.49 203.17 285.55 209.42 271.55 209.42 271.69 221.68 264.31 221.68 264.17 209.75 264.12 204.99 264.09 203.17 269.12 203.17"></polygon><polygon class="cls-8" points="279.42 214.71 299.49 214.71 299.5 216.46 299.73 216.46 299.83 228.55 297.65 228.55 297.55 216.46 281.41 216.46 281.53 228.55 279.36 228.55 279.23 216.46 279.43 216.46 279.42 214.71"></polygon><polygon class="cls-9" points="289.51 228.55 297.57 228.55 297.46 216.46 289.39 216.46 289.51 228.55"></polygon><polygon class="cls-10" points="281.62 228.55 289.68 228.55 289.56 216.46 281.49 216.46 281.62 228.55"></polygon><polygon class="cls-5" points="292.02 129.97 314.4 129.97 314.53 149.26 292.2 149.26 292.02 129.97"></polygon><polygon class="cls-5" points="263.01 129.97 285.39 129.97 285.58 149.26 263.24 149.26 263.01 129.97"></polygon><polygon class="cls-5" points="292.64 154.22 314.06 154.22 314.2 172.65 292.81 172.65 292.64 154.22"></polygon><polygon class="cls-5" points="263.68 154.22 285.1 154.22 285.29 172.65 263.9 172.65 263.68 154.22"></polygon><polygon class="cls-5" points="292.86 179.28 314.4 179.28 314.54 197.76 293.03 197.76 292.86 179.28"></polygon><polygon class="cls-5" points="263.99 179.28 285.53 179.28 285.71 197.76 264.21 197.76 263.99 179.28"></polygon><polygon class="cls-6" points="168.87 79.84 168.87 70.22 179.04 70.22 179.04 43.58 182.37 43.58 182.37 70.22 192.54 70.22 192.54 79.84 197.35 79.84 197.35 228.99 164.06 228.99 164.06 79.84 168.87 79.84"></polygon><rect class="cls-6" x="47.35" y="151.31" width="4.3" height="25.76"></rect><polygon class="cls-5" points="83.19 177.07 66.44 177.07 51.66 177.07 51.66 151.31 52.27 151.31 55.04 151.31 58.67 151.31 81.27 151.31 87.68 151.31 87.68 177.07 83.19 177.07"></polygon><rect class="cls-5" x="113.33" y="151.31" width="6.8" height="1.22"></rect><rect class="cls-5" x="98.49" y="151.31" width="6.61" height="1.22"></rect><path class="cls-5" d="M137.34,160.94h-1.7a.55.55,0,0,0,0,1.09h1.68v5.07h-1.68a.54.54,0,0,0,0,1.08h1.68v8.89h-6.38V151.31h9.74v2.19A11.14,11.14,0,0,0,137.34,160.94Z"></path><rect class="cls-6" x="7.3" y="177.37" width="11.6" height="52.4"></rect><rect class="cls-5" x="50.23" y="229.03" width="6.02" height="0.44"></rect><rect class="cls-5" x="107.42" y="229.03" width="6.02" height="0.44"></rect><rect class="cls-5" x="73.1" y="229.03" width="6.03" height="0.44"></rect><rect class="cls-5" x="95.99" y="229.03" width="6.02" height="0.44"></rect><rect class="cls-5" x="84.55" y="229.03" width="6.02" height="0.44"></rect><rect class="cls-5" x="61.67" y="229.03" width="6.02" height="0.44"></rect><rect class="cls-5" x="141.74" y="229.03" width="6.02" height="0.44"></rect><rect class="cls-5" x="130.3" y="229.03" width="6.02" height="0.44"></rect><rect class="cls-5" x="118.86" y="229.03" width="6.02" height="0.44"></rect><rect class="cls-5" x="153.17" y="229.03" width="6.03" height="0.44"></rect><path class="cls-9" d="M18.9,177.07v52.4H44.81V229H32.59V189.52H28.31a1.08,1.08,0,0,1,0-2.16h4.28v-6.58h129.2v-3.71h-2.1v.22H137.32v-.22h-6.38v1.17H87.68v-1.17Z"></path><path class="cls-6" d="M32.59,187.36v-6.57H39v6.57Z"></path><path class="cls-6" d="M39,229H32.59V189.52H39Z"></path><path class="cls-5" d="M39,189.52V229h5.86v-8.48a2.71,2.71,0,0,1,5.42,0V229h6v-8.48a2.71,2.71,0,0,1,5.42,0V229h6v-8.48a2.71,2.71,0,0,1,5.41,0V229h6v-8.48a2.71,2.71,0,0,1,5.42,0V229h6v-8.48a2.71,2.71,0,0,1,5.42,0V229h6v-8.48a2.71,2.71,0,0,1,5.41,0V229h6v-8.48a2.71,2.71,0,0,1,5.42,0V229h6v-8.48a2.71,2.71,0,0,1,5.42,0V229h6v-8.48a2.71,2.71,0,0,1,5.42,0V229h6v-8.48a2.71,2.71,0,0,1,5.41,0V229h6v-8.48a2.71,2.71,0,0,1,5.42,0V229h5.86V189.52ZM159.2,209.06a2.71,2.71,0,1,1,5.42,0v3.82H159.2Zm-11.44,0a2.71,2.71,0,1,1,5.41,0v3.82h-5.41Zm-11.44,0a2.71,2.71,0,1,1,5.42,0v3.82h-5.42Zm-11.44,0a2.71,2.71,0,1,1,5.42,0v3.82h-5.42Zm-11.44,0a2.71,2.71,0,1,1,5.42,0v3.82h-5.42Zm-11.43,0a2.71,2.71,0,1,1,5.41,0v3.82H102Zm-11.44,0a2.71,2.71,0,1,1,5.42,0v3.82H90.57Zm-11.44,0a2.71,2.71,0,1,1,5.42,0v3.82H79.13Zm-11.44,0a2.71,2.71,0,1,1,5.41,0v3.82H67.69Zm-11.44,0a2.71,2.71,0,1,1,5.42,0v3.82H56.25Zm-11.44,0a2.71,2.71,0,1,1,5.42,0v3.82H44.81Z"></path><path class="cls-5" d="M155.66,187.36H39v-6.57H170.48v6.57Z"></path><path class="cls-10" d="M46.39,189.52H28.31a1.08,1.08,0,0,1,0-2.16H173.75a1.08,1.08,0,0,1,0,2.16H46.39Z"></path><path class="cls-5" d="M76,90.92V87.09a.88.88,0,0,1,1.75,0v3.83a7.68,7.68,0,0,0-1.75,0Z"></path><path class="cls-5" d="M69.41,99.38v9.78a18.06,18.06,0,0,1,14.91,0V99.38Zm5.11,3.17a2.34,2.34,0,1,1,4.68,0v3.3H74.52Z"></path><path class="cls-5" d="M76,90.92a7.68,7.68,0,0,1,1.75,0,7.47,7.47,0,0,1,6.55,6.71H69.44A7.46,7.46,0,0,1,76,90.92Z"></path><path class="cls-5" d="M58.8,124.75a18.08,18.08,0,0,1,32-10.67l-3.08,10.67Z"></path><path class="cls-10" d="M66.92,99.38a.88.88,0,0,1,0-1.75H86.81a.88.88,0,0,1,0,1.75H66.92Z"></path><path class="cls-5" d="M58.78,126.5v8.2h28.9v-1.28h-1.3v-3.3a2.34,2.34,0,0,1,1.3-2.09V126.5Zm19.7,3.62a2.34,2.34,0,1,1,4.68,0v3.3H78.48Zm-7.91,0a2.34,2.34,0,1,1,4.68,0v3.3H70.57Zm-7.91,0a2.34,2.34,0,0,1,4.68,0v3.3H62.66Z"></path><path class="cls-5" d="M58.78,136.44v14.72h3.88V140.74a2.34,2.34,0,1,1,4.68,0v10.42h3.23V140.74a2.34,2.34,0,1,1,4.68,0v10.42h3.23V140.74a2.34,2.34,0,1,1,4.68,0v10.42h3.22v-8.89h-.14a1.08,1.08,0,0,1,0-2.16h.23a2.32,2.32,0,0,1,1.21-1.46v-2.21Z"></path><path class="cls-5" d="M98.49,125.68v-.1A.17.17,0,0,1,98.49,125.68Z"></path><path class="cls-10" d="M87.68,124.78v1.72H56.07a.88.88,0,0,1,0-1.75H87.69Z"></path><path class="cls-5" d="M98.49,135.62v-.1A.17.17,0,0,1,98.49,135.62Z"></path><path class="cls-10" d="M87.68,136.44H56.07a.87.87,0,0,1,0-1.74H87.68Z"></path><path class="cls-5" d="M98.5,152.53v25.71h21.62V152.53h-6.8v-3.1a4.11,4.11,0,1,0-8.21,0v3.1Zm8.56-2.31a2.16,2.16,0,0,1,4.32,0v7.12h-4.32Z"></path><path class="cls-5" d="M120.12,124.79v15.32h10.82V124.79L125.53,106Zm3.11,7.69a2.3,2.3,0,0,1,4.6,0v7.58h-4.6Z"></path><path class="cls-5" d="M120.12,142.27v36h10.82v-36Zm3.11,25.43a2.3,2.3,0,0,1,4.6,0v7.58h-4.6Zm0-15.19a2.3,2.3,0,0,1,4.6,0v7.57h-4.6Z"></path><path class="cls-10" d="M118.68,142.27a1.08,1.08,0,0,1,0-2.16h13.7a1.08,1.08,0,0,1,0,2.16h-13.7Z"></path><path class="cls-5" d="M87.68,124.79v15.32H98.5V124.79L93.09,106l-2.32,8-3.08,10.67Zm3.11,7.69a2.3,2.3,0,0,1,4.6,0v7.58h-4.6Z"></path><path class="cls-5" d="M87.68,142.27v36H98.5v-36Zm3.11,25.43a2.3,2.3,0,0,1,4.6,0v7.58h-4.6Zm0-15.19a2.3,2.3,0,0,1,4.6,0v7.57h-4.6Z"></path><path class="cls-10" d="M86.24,142.27h13.7a1.08,1.08,0,0,0,0-2.16H86.24A1.08,1.08,0,0,0,86.24,142.27Z"></path><path class="cls-5" d="M148,140v.22a.54.54,0,0,0,1.08,0V140a4.62,4.62,0,0,1,4.05,4.16h-9.18A4.63,4.63,0,0,1,148,140Z"></path><path class="cls-5" d="M143.89,145.25v6.05a11.15,11.15,0,0,1,9.23,0v-6.05Zm3.16,1.95a1.45,1.45,0,0,1,2.9,0v2.05h-2.9Z"></path><path class="cls-5" d="M137.34,160.94a11.14,11.14,0,0,1,3.34-7.44,11.31,11.31,0,0,1,3.21-2.2,11.17,11.17,0,0,1,15.77,9.64Z"></path><path class="cls-10" d="M142.35,145.25a.54.54,0,0,1,0-1.08h12.3a.54.54,0,0,1,0,1.08h-12.3Z"></path><path class="cls-5" d="M137.32,162v5.08h22.37V162Zm17.07,2.24a1.45,1.45,0,0,1,2.9,0v2.05h-2.9Zm-4.89,0a1.45,1.45,0,0,1,2.9,0v2.05h-2.9Zm-4.89,0a1.45,1.45,0,0,1,2.9,0v2.05h-2.9Zm-4.89,0a1.45,1.45,0,1,1,2.89,0v2.05h-2.89Z"></path><path class="cls-5" d="M137.32,177.28v-9.1h22.37v9.1Z"></path><path class="cls-5" d="M148,140.23v-3.91a.54.54,0,0,1,1.08,0v3.91A.54.54,0,0,1,148,140.23Z"></path><path class="cls-10" d="M137.32,162h-1.68a.55.55,0,0,1,0-1.09h25.72a.55.55,0,0,1,0,1.09h-24Z"></path><path class="cls-10" d="M137.32,168.18h-1.68a.54.54,0,0,1,0-1.08h25.72a.54.54,0,0,1,0,1.08h-24Z"></path><path class="cls-9" d="M16.47,228.69l12.26-.14-.89-44-.17-10.19v-.61l-.16-9.08,0-.59-.14-8.62v-.56l-.15-8.23v-.53L27,138.33v-.51l-.14-7.49v-.48l-.12-7.17v-.46L26.66,116a4.08,4.08,0,0,1-1,.57l.08,4.53-4.23-3.86a9.75,9.75,0,0,1-1.59-.19L25,121.74l-6.35,0,0-5a4.52,4.52,0,0,1-1-.46l-.06,5.93v.47l-.07,7.16v.48l-.07,7.51v.5l-.07,7.85v.53l-.07,8.23v.56l-.09,8.64v.58l-.09,9.09v.61l-.1,10.2Zm1.93-54h7.33l-7.37,8Zm.13-8.56,7.25,7.62H18.47Zm-.09-10.81,7,0-7,7.2Zm.08-7.88,6.91,6.93-6.95,0Zm.05-9.18,6.66,0-6.7,6.54Zm.06-7.28,6.6,6.31-6.65,0Zm6.43-8.23-6.4,6,0-6Zm.94,7.33-6.49,0,6.4-6Zm.1,7.27-6.58-6.29,6.49,0Zm.13,9-6.78,0,6.7-6.55Zm.1,7.85-6.9-6.89,6.8,0Zm.14,9.9H19.34l7-7.23Zm.07,8.53-7.25-7.58h7.15Zm.06,10.48H19.1l7.38-8Z"></path><path class="cls-9" d="M17.8,116.59a4.09,4.09,0,0,0,1,.45v-.74l1.2,1.09a11,11,0,0,0,1.59.2l-2.93-2.69-.35.32h-.49Zm7.91-1.32,0,1.65a3.9,3.9,0,0,0,1-.58l0-1.07Z"></path><path class="cls-9" d="M16.37,114.41a1.73,1.73,0,0,0,.51,1.46l.34.32a4.23,4.23,0,0,0,.58.4,4.09,4.09,0,0,0,1,.45,6.21,6.21,0,0,0,1.2.35,11,11,0,0,0,1.59.2h.72a8.81,8.81,0,0,0,3.43-.69,3.9,3.9,0,0,0,1-.58l.09-.06.32-.31a1.61,1.61,0,0,0,.46-1.42l-.73-4.08,1.93,0-6.71-3.41-7,3.18,2,0Z"></path><path class="cls-11" d="M49.26,115.77v11.47H43.2V94.65H53.81a18.67,18.67,0,0,1,5.66.77,10.85,10.85,0,0,1,3.94,2.14,8.4,8.4,0,0,1,2.3,3.29,12.27,12.27,0,0,1,0,8.53,9,9,0,0,1-2.36,3.39A11,11,0,0,1,59.35,115a17.66,17.66,0,0,1-5.54.79Zm0-4.74h4.55a9.13,9.13,0,0,0,2.91-.41,5.45,5.45,0,0,0,2.05-1.2A4.92,4.92,0,0,0,60,107.53a7,7,0,0,0,.41-2.49,6.41,6.41,0,0,0-.41-2.37,4.73,4.73,0,0,0-1.21-1.8,5.49,5.49,0,0,0-2.05-1.14,9.76,9.76,0,0,0-2.91-.39H49.26Z"></path><path class="cls-11" d="M70.85,127.24V104.12h3.26a1.78,1.78,0,0,1,1.2.31,1.87,1.87,0,0,1,.45,1.08l.34,2.8a10.8,10.8,0,0,1,2.9-3.38,6.11,6.11,0,0,1,3.74-1.24,4.79,4.79,0,0,1,2.84.79l-.72,4.17a.82.82,0,0,1-.29.57,1,1,0,0,1-.61.17,3.6,3.6,0,0,1-.92-.16,6.44,6.44,0,0,0-1.56-.16,4.7,4.7,0,0,0-3,1,7.3,7.3,0,0,0-2.1,2.81v14.4Z"></path><path class="cls-11" d="M99.13,103.76a12.64,12.64,0,0,1,4.7.83,10.2,10.2,0,0,1,3.59,2.36,10.53,10.53,0,0,1,2.3,3.75,15.5,15.5,0,0,1,0,9.89,10.76,10.76,0,0,1-2.3,3.76,10,10,0,0,1-3.59,2.39,13.75,13.75,0,0,1-9.41,0,10,10,0,0,1-3.62-2.39,10.8,10.8,0,0,1-2.32-3.76,15.32,15.32,0,0,1,0-9.89A10.57,10.57,0,0,1,90.8,107a10.24,10.24,0,0,1,3.62-2.36A12.66,12.66,0,0,1,99.13,103.76Zm0,19.53a4.89,4.89,0,0,0,4.27-1.94,9.72,9.72,0,0,0,1.38-5.67A9.88,9.88,0,0,0,103.4,110a5.68,5.68,0,0,0-8.6,0,9.77,9.77,0,0,0-1.4,5.69,9.67,9.67,0,0,0,1.4,5.66A5,5,0,0,0,99.13,123.29Z"></path><path class="cls-11" d="M114.88,134.78V104.12h3.4a1.68,1.68,0,0,1,.92.24,1.17,1.17,0,0,1,.5.77l.45,2.14a11.55,11.55,0,0,1,3.21-2.59,8.75,8.75,0,0,1,4.25-1,7.55,7.55,0,0,1,3.46.79,7.7,7.7,0,0,1,2.7,2.28,10.87,10.87,0,0,1,1.76,3.7,18.69,18.69,0,0,1,.62,5,15.78,15.78,0,0,1-.7,4.8,11.8,11.8,0,0,1-2,3.83,9.33,9.33,0,0,1-3.13,2.53,9.13,9.13,0,0,1-4.12.91,8.43,8.43,0,0,1-3.32-.59,8.11,8.11,0,0,1-2.45-1.66v9.46Zm10.81-26.7a5.77,5.77,0,0,0-3,.73,8.63,8.63,0,0,0-2.29,2.07v10.36a5.32,5.32,0,0,0,2.07,1.64,6.33,6.33,0,0,0,2.4.46,5.29,5.29,0,0,0,2.28-.48,4.37,4.37,0,0,0,1.74-1.44A7,7,0,0,0,130,119a13.82,13.82,0,0,0,.38-3.48,16,16,0,0,0-.32-3.44,6.64,6.64,0,0,0-.94-2.29,3.73,3.73,0,0,0-1.47-1.28A4.64,4.64,0,0,0,125.69,108.08Z"></path><path class="cls-11" d="M149.92,103.76a11.35,11.35,0,0,1,4,.69,9,9,0,0,1,3.17,2,9.51,9.51,0,0,1,2.07,3.29,12.36,12.36,0,0,1,.74,4.45,10,10,0,0,1,0,1,1.71,1.71,0,0,1-.21.66.79.79,0,0,1-.39.33,1.67,1.67,0,0,1-.63.1H144.35a8,8,0,0,0,1.92,5.23,6,6,0,0,0,4.41,1.67A7.69,7.69,0,0,0,153,123a11.67,11.67,0,0,0,1.71-.69c.49-.26.92-.49,1.28-.7a2.19,2.19,0,0,1,1.07-.32,1.22,1.22,0,0,1,.59.14,1.4,1.4,0,0,1,.43.38l1.62,2a9.55,9.55,0,0,1-2.07,1.81,11.57,11.57,0,0,1-2.4,1.17,12.81,12.81,0,0,1-2.55.62,18.19,18.19,0,0,1-2.51.18,12.26,12.26,0,0,1-4.49-.8,10,10,0,0,1-3.6-2.36,11.11,11.11,0,0,1-2.41-3.88,14.89,14.89,0,0,1-.88-5.35,12.58,12.58,0,0,1,.77-4.45,10.75,10.75,0,0,1,2.19-3.63,10.4,10.4,0,0,1,3.49-2.44A11.56,11.56,0,0,1,149.92,103.76Zm.11,4a5.15,5.15,0,0,0-3.81,1.38,6.81,6.81,0,0,0-1.76,3.9h10.46a7.13,7.13,0,0,0-.29-2,4.85,4.85,0,0,0-.9-1.68,4.34,4.34,0,0,0-1.54-1.14A5.14,5.14,0,0,0,150,107.74Z"></path><path class="cls-11" d="M164.45,127.24V104.12h3.27a1.73,1.73,0,0,1,1.19.31,1.75,1.75,0,0,1,.45,1.08l.34,2.8a11,11,0,0,1,2.91-3.38,6.09,6.09,0,0,1,3.74-1.24,4.81,4.81,0,0,1,2.84.79l-.72,4.17a.86.86,0,0,1-.29.57,1,1,0,0,1-.61.17,3.6,3.6,0,0,1-.93-.16,6.41,6.41,0,0,0-1.55-.16,4.73,4.73,0,0,0-3,1,7.39,7.39,0,0,0-2.09,2.81v14.4Z"></path><path class="cls-11" d="M206.14,94.65v5h-9.8v27.61h-6.06V99.63h-9.85v-5Z"></path><path class="cls-11" d="M42,230.13V142.05H74.36a61.51,61.51,0,0,1,15.53,1.69,29.49,29.49,0,0,1,10.46,4.78,18.08,18.08,0,0,1,5.9,7.49,25.36,25.36,0,0,1,1.84,9.86,19.12,19.12,0,0,1-.85,5.71,16.62,16.62,0,0,1-2.66,5.17,19.78,19.78,0,0,1-4.65,4.38,30.23,30.23,0,0,1-6.83,3.42q8.7,2.12,12.87,6.86t4.18,12.18A25.19,25.19,0,0,1,108,214.05a23.82,23.82,0,0,1-6.38,8.43,30.23,30.23,0,0,1-10.37,5.63,45.05,45.05,0,0,1-14.08,2Zm20.44-51H73a34.26,34.26,0,0,0,6.1-.49,12.57,12.57,0,0,0,4.63-1.69,7.75,7.75,0,0,0,2.9-3.32,12.56,12.56,0,0,0,1-5.32,15,15,0,0,0-.79-5.23,7.49,7.49,0,0,0-2.42-3.36,10.09,10.09,0,0,0-4.14-1.81,27.9,27.9,0,0,0-6-.55h-12Zm0,13.66v21.95H76.77a18.14,18.14,0,0,0,6.62-1,10.39,10.39,0,0,0,4-2.66,8.89,8.89,0,0,0,2-3.69,16.34,16.34,0,0,0,.54-4.17,14,14,0,0,0-.63-4.35,7.19,7.19,0,0,0-2.18-3.27,10.63,10.63,0,0,0-4.08-2.05,23.51,23.51,0,0,0-6.41-.73Z"></path><path class="cls-11" d="M141.7,213.81h32.65v16.32H121.27V142.05H141.7Z"></path><path class="cls-11" d="M266.12,186.06a47.43,47.43,0,0,1-3.29,17.77,42,42,0,0,1-23.7,23.82,52.54,52.54,0,0,1-37.45,0,42,42,0,0,1-23.79-23.82,49.49,49.49,0,0,1,0-35.54A42.2,42.2,0,0,1,187.2,154a42.87,42.87,0,0,1,14.48-9.49,49.2,49.2,0,0,1,18.74-3.45,48.6,48.6,0,0,1,18.71,3.48,43.07,43.07,0,0,1,14.42,9.52,42.58,42.58,0,0,1,9.28,14.27A47.27,47.27,0,0,1,266.12,186.06Zm-20.92,0a38.08,38.08,0,0,0-1.69-11.76,25.09,25.09,0,0,0-4.86-8.86,21.14,21.14,0,0,0-7.77-5.56A26.76,26.76,0,0,0,220.42,158a27.11,27.11,0,0,0-10.55,1.93,21.09,21.09,0,0,0-7.8,5.56,25,25,0,0,0-4.87,8.86,42,42,0,0,0,0,23.58,24.87,24.87,0,0,0,4.87,8.86,20.79,20.79,0,0,0,7.8,5.53,27.49,27.49,0,0,0,10.55,1.9,27.13,27.13,0,0,0,10.46-1.9,20.85,20.85,0,0,0,7.77-5.53,25,25,0,0,0,4.86-8.86A38.29,38.29,0,0,0,245.2,186.06Z"></path><path class="cls-11" d="M317.39,215.38a34.93,34.93,0,0,0,7.49-.72,36.73,36.73,0,0,0,6.17-1.94V199.36h-8.7a4.22,4.22,0,0,1-3-1,3.43,3.43,0,0,1-1.09-2.6V184.49h31.32v37.18a46.46,46.46,0,0,1-7,4.26,45,45,0,0,1-7.8,2.93,58.54,58.54,0,0,1-8.83,1.7,88,88,0,0,1-10.06.54,46.15,46.15,0,0,1-17.9-3.42A42.81,42.81,0,0,1,274.25,204a46.32,46.32,0,0,1-3.41-17.92A48.74,48.74,0,0,1,274.1,168a40.82,40.82,0,0,1,9.34-14.23,42.3,42.3,0,0,1,14.69-9.31,53.06,53.06,0,0,1,19.26-3.33,55.73,55.73,0,0,1,10.34.91,50.3,50.3,0,0,1,8.91,2.48,40.29,40.29,0,0,1,13.51,8.46l-5.92,9a6.52,6.52,0,0,1-2,2,4.73,4.73,0,0,1-2.56.73,7,7,0,0,1-3.75-1.21c-1.62-1-3.14-1.8-4.57-2.51a27.8,27.8,0,0,0-9.1-2.69,46.5,46.5,0,0,0-5.56-.3,25.4,25.4,0,0,0-10.34,2,22.23,22.23,0,0,0-7.83,5.72,26,26,0,0,0-5,8.85,35.71,35.71,0,0,0-1.76,11.52,37,37,0,0,0,1.94,12.45A26.71,26.71,0,0,0,299,207.7a22.77,22.77,0,0,0,8.1,5.72A26.22,26.22,0,0,0,317.39,215.38Z"></path><rect class="cls-12" x="184.69" y="27.31" width="71.61" height="40.63"></rect><rect class="cls-13" x="188.06" y="30.95" width="64.3" height="33.17"></rect><path class="cls-4" d="M188.06,64.12l18.22-24.46a5,5,0,0,1,8,0l13.37,17.57L235,50.26a5,5,0,0,1,7.4.63l10,13.23Z"></path><path class="cls-3" d="M233.51,41.12a5.31,5.31,0,1,1-5.3-5.3A5.3,5.3,0,0,1,233.51,41.12Z"></path><path class="cls-2" d="M96.55,32.08v21a3.29,3.29,0,0,0,3.29,3.29h38.25a3.32,3.32,0,0,1,2,.67l8.41,6.43a3.29,3.29,0,0,0,5.29-2.62V32.08a3.3,3.3,0,0,0-3.3-3.29H99.84A3.29,3.29,0,0,0,96.55,32.08Z"></path><circle class="cls-3" cx="116.39" cy="43.02" r="2.19"></circle><path class="cls-3" d="M128.11,43a2.19,2.19,0,1,1-2.19-2.2A2.19,2.19,0,0,1,128.11,43Z"></path><path class="cls-3" d="M137.63,43a2.19,2.19,0,1,1-2.19-2.2A2.19,2.19,0,0,1,137.63,43Z"></path></g></svg>